<svg width="24" height="24" viewBox="0 0 24 24" fill="none" xmlns="http://www.w3.org/2000/svg">
<path d="M23.04 0H0.96C0.429 0 0 0.429 0 0.96V23.04C0 23.571 0.429 24 0.96 24H23.04C23.571 24 24 23.571 24 23.04V0.96C24 0.429 23.571 0 23.04 0ZM7.119 20.451H3.558V8.997H7.119V20.451ZM5.34 7.431C4.2 7.431 3.276 6.507 3.276 5.367C3.276 4.227 4.2 3.303 5.34 3.303C6.48 3.303 7.404 4.227 7.404 5.367C7.401 6.507 6.477 7.431 5.34 7.431ZM20.451 20.451H16.893V14.88C16.893 13.551 16.869 11.844 15.042 11.844C13.191 11.844 12.906 13.29 12.906 14.784V20.451H9.351V8.997H12.765V10.563H12.813C13.287 9.663 14.448 8.712 16.182 8.712C19.788 8.712 20.451 11.085 20.451 14.169V20.451Z" fill="white"/>
</svg>
