<svg width="24" height="24" viewBox="0 0 24 24" fill="none" xmlns="http://www.w3.org/2000/svg">
<path d="M11.9968 5.84294C8.58981 5.84294 5.83984 8.59297 5.83984 12C5.83984 15.407 8.58981 18.1571 11.9968 18.1571C15.4037 18.1571 18.1537 15.407 18.1537 12C18.1537 8.59297 15.4037 5.84294 11.9968 5.84294ZM11.9968 16.001C9.7928 16.001 7.99482 14.203 7.99482 12C7.99482 9.79598 9.7928 7.99796 11.9968 7.99796C14.1998 7.99796 15.9977 9.79598 15.9977 12C15.9977 14.203 14.1998 16.001 11.9968 16.001ZM18.4057 4.15593C17.6097 4.15593 16.9677 4.79794 16.9677 5.59394C16.9677 6.38895 17.6097 7.03196 18.4057 7.03196C19.2017 7.03196 19.8437 6.39195 19.8437 5.59394C19.8437 5.21194 19.6927 4.84594 19.4227 4.57593C19.1537 4.30593 18.7867 4.15493 18.4057 4.15593ZM23.9987 12C23.9987 10.343 24.0137 8.70097 23.9207 7.04696C23.8277 5.12494 23.3887 3.41992 21.9837 2.01491C20.5757 0.606898 18.8737 0.171894 16.9527 0.078893C15.2957 -0.0141078 13.6538 0.000892334 11.9998 0.000892334C10.3428 0.000892334 8.70081 -0.0141078 7.04682 0.078893C5.12484 0.171894 3.41986 0.609898 2.01487 2.01491C0.606887 3.42292 0.171891 5.12494 0.0788916 7.04696C-0.0141075 8.70397 0.000892317 10.346 0.000892317 12C0.000892317 13.654 -0.0141075 15.299 0.0788916 16.953C0.171891 18.8741 0.609887 20.5791 2.01487 21.9841C3.42286 23.3921 5.12484 23.8281 7.04682 23.9211C8.70381 24.0141 10.3458 23.9991 11.9998 23.9991C13.6568 23.9991 15.2987 24.0141 16.9527 23.9211C18.8737 23.8281 20.5787 23.3891 21.9837 21.9841C23.3917 20.5761 23.8277 18.8741 23.9207 16.953C24.0167 15.299 23.9987 13.657 23.9987 12ZM21.3567 19.0781C21.1377 19.6251 20.8737 20.0331 20.4497 20.4531C20.0267 20.8771 19.6217 21.1411 19.0747 21.3601C17.4957 21.9871 13.7468 21.8461 11.9968 21.8461C10.2468 21.8461 6.49383 21.9871 4.91484 21.3631C4.36885 21.1441 3.95985 20.8801 3.53986 20.4561C3.11686 20.0331 2.85286 19.6281 2.63387 19.0811C2.00887 17.499 2.14987 13.75 2.14987 12C2.14987 10.25 2.00887 6.49695 2.63387 4.91794C2.85286 4.37193 3.11686 3.96293 3.53986 3.54292C3.96285 3.12292 4.36885 2.85592 4.91484 2.63692C6.49383 2.01191 10.2468 2.15291 11.9968 2.15291C13.7468 2.15291 17.4987 2.01191 19.0777 2.63692C19.6247 2.85592 20.0327 3.11992 20.4527 3.54292C20.8767 3.96593 21.1407 4.37193 21.3597 4.91794C21.9837 6.49695 21.8427 10.25 21.8427 12C21.8427 13.75 21.9837 17.499 21.3567 19.0781Z" fill="white"/>
</svg>
