<svg width="24" height="24" viewBox="0 0 24 24" fill="none" xmlns="http://www.w3.org/2000/svg">
<path d="M20.4193 10.2716C18.7693 10.2754 17.1568 9.76164 15.8143 8.80164V15.5029C15.8143 16.7441 15.4355 17.9554 14.7268 18.9754C14.018 19.9954 13.0168 20.7754 11.8543 21.2104C10.6918 21.6454 9.42429 21.7166 8.22054 21.4091C7.01679 21.1016 5.93679 20.4379 5.11929 19.5041C4.30179 18.5704 3.79554 17.4041 3.65679 16.1704C3.51804 14.9366 3.76554 13.6916 4.35429 12.6004C4.94304 11.5091 5.85429 10.6241 6.96429 10.0616C8.07429 9.49914 9.32304 9.29289 10.553 9.46164V12.8329C9.99054 12.6566 9.38679 12.6604 8.82804 12.8479C8.26929 13.0354 7.78179 13.3954 7.44054 13.8716C7.09929 14.3479 6.91554 14.9254 6.91929 15.5179C6.92304 16.1104 7.11429 16.6804 7.46304 17.1566C7.81179 17.6329 8.30304 17.9854 8.86554 18.1654C9.42804 18.3454 10.0318 18.3454 10.5905 18.1616C11.1493 17.9779 11.6405 17.6216 11.9855 17.1454C12.3305 16.6691 12.518 16.0916 12.518 15.5029V2.40039H15.818C15.8143 2.67789 15.8405 2.95914 15.8893 3.23289C16.0055 3.84414 16.2418 4.42914 16.5905 4.94664C16.9393 5.46414 17.3893 5.90664 17.9105 6.24414C18.6568 6.73539 19.5305 6.99789 20.423 6.99789V10.2754L20.4193 10.2716Z" fill="white"/>
</svg>
