<svg width="100" height="69" viewBox="0 0 100 69" fill="none" xmlns="http://www.w3.org/2000/svg">
<path d="M2.91272 39.8918C2.51825 39.8918 2.12378 39.8767 1.7295 39.8461C1.36532 39.8158 0.98618 39.7703 0.591708 39.7094L0 33.6915C0.940558 33.7522 1.63845 33.57 2.09349 33.1445C2.54853 32.7493 2.77605 32.0046 2.77605 30.9105V8.47985H10.1487V31.1385C10.1487 32.719 9.96661 34.0562 9.60262 35.1503C9.23843 36.275 8.72263 37.1867 8.05521 37.8858C7.3878 38.5849 6.61399 39.0863 5.7342 39.3903C4.8544 39.7246 3.91385 39.8918 2.91272 39.8918ZM6.46238 6.70181C5.09707 6.70181 4.05032 6.41307 3.32233 5.83559C2.59415 5.25812 2.22996 4.43748 2.22996 3.3737C2.22996 2.27954 2.59415 1.44369 3.32233 0.866217C4.05032 0.288739 5.09707 0 6.46238 0C7.85798 0 8.91986 0.288739 9.64804 0.866217C10.3762 1.44369 10.7402 2.27954 10.7402 3.3737C10.7402 4.43748 10.3762 5.25812 9.64804 5.83559C8.91986 6.41307 7.85798 6.70181 6.46238 6.70181ZM22.7295 33.1445C20.545 33.1445 18.6792 32.6733 17.1318 31.731C15.6149 30.7888 14.4468 29.3907 13.6276 27.5367C12.8388 25.6523 12.4443 23.3271 12.4443 20.5615C12.4443 17.6132 12.8691 15.212 13.7186 13.3581C14.5984 11.4736 15.8121 10.0907 17.3593 9.20929C18.9067 8.32789 20.7422 7.88718 22.866 7.88718C25.0808 7.88718 26.9466 8.34307 28.4637 9.2548C30.0109 10.1364 31.179 11.5041 31.968 13.3581C32.787 15.212 33.1966 17.5829 33.1966 20.4703C33.1966 23.4183 32.7567 25.8347 31.8769 27.7192C31.0274 29.5731 29.8137 30.9409 28.236 31.8222C26.6888 32.7036 24.8533 33.1445 22.7295 33.1445ZM22.866 27.9014C23.5639 27.9014 24.1251 27.6583 24.5499 27.1721C25.0049 26.6554 25.3386 25.8802 25.551 24.8469C25.7939 23.8135 25.9152 22.5066 25.9152 20.9261C25.9152 19.1632 25.7939 17.7347 25.551 16.6406C25.3083 15.516 24.9443 14.6801 24.4588 14.133C24.0038 13.586 23.4272 13.3126 22.7295 13.3126C22.0619 13.3126 21.5007 13.5708 21.0456 14.0875C20.5906 14.6043 20.2569 15.4096 20.0445 16.5037C19.8321 17.598 19.726 19.0113 19.726 20.7437C19.726 23.1752 19.9838 24.9837 20.4996 26.169C21.0456 27.324 21.8344 27.9014 22.866 27.9014ZM39.1925 32.5517L33.0487 8.47985H40.6487L43.6979 26.5338H43.9254L47.1567 8.47985H54.4835L48.2943 32.5517H39.1925ZM64.8696 33.1445C62.8369 33.1445 61.1378 32.8405 59.7727 32.2326C58.4377 31.6246 57.3455 30.7736 56.496 29.6795C55.6768 28.555 55.0853 27.2631 54.7211 25.8043C54.3874 24.3151 54.2204 22.7194 54.2204 21.0173C54.2204 19.2849 54.4025 17.6435 54.7667 16.0936C55.1307 14.5131 55.7071 13.115 56.496 11.8991C57.2847 10.6531 58.3315 9.68031 59.6361 8.98137C60.9711 8.2519 62.5942 7.88718 64.5056 7.88718C66.3562 7.88718 67.9188 8.22151 69.193 8.89016C70.4976 9.55877 71.5292 10.501 72.2877 11.7169C73.0461 12.9325 73.5316 14.3763 73.744 16.0479C73.9867 17.6892 73.9564 19.4977 73.653 21.4732L58.9079 21.838V18.1451L67.9644 17.9627L67.0995 20.1966C67.2816 18.677 67.2968 17.4308 67.1452 16.4582C66.9934 15.4553 66.7053 14.7106 66.2805 14.2243C65.8558 13.7381 65.2641 13.4948 64.5056 13.4948C63.6864 13.4948 63.0341 13.7836 62.5488 14.361C62.0935 14.9082 61.7598 15.6984 61.5474 16.7318C61.3656 17.7347 61.2745 18.9504 61.2745 20.379C61.2745 23.0233 61.5626 24.9228 62.1392 26.0778C62.746 27.2328 63.6561 27.8104 64.8696 27.8104C65.4159 27.8104 65.8558 27.704 66.1895 27.4912C66.5535 27.2479 66.8417 26.9288 67.0541 26.5338C67.2665 26.1387 67.403 25.6674 67.4637 25.1204C67.5243 24.5733 67.5396 23.9959 67.5092 23.388L74.0626 23.8895C74.2142 24.9228 74.1688 25.9866 73.9261 27.0809C73.7137 28.1447 73.2736 29.1476 72.6062 30.0898C71.9388 31.0015 70.968 31.7462 69.6937 32.3238C68.4497 32.8708 66.8417 33.1445 64.8696 33.1445Z" fill="#161616"/>
<path d="M14.831 68.2035L14.285 61.5473C14.5884 61.608 14.8767 61.6537 15.1496 61.6841C15.453 61.7144 15.6654 61.7296 15.7867 61.7296C16.5757 61.7296 17.2128 61.5625 17.6981 61.2282C18.1837 60.8937 18.5325 60.3618 18.7449 59.6325C18.9573 58.903 19.0635 57.9608 19.0635 56.8058V37.7946H26.3449V56.897C26.3449 59.4805 25.996 61.6232 25.2983 63.3253C24.6004 64.997 23.5234 66.2432 22.067 67.0637C20.6412 67.8844 18.8057 68.2947 16.5603 68.2947C16.2266 68.2947 15.9232 68.2795 15.6503 68.249C15.4076 68.249 15.1345 68.2338 14.831 68.2035ZM40.3952 68.4771C38.4838 68.4771 36.7999 68.158 35.3438 67.5197C33.8874 66.8509 32.6737 65.8783 31.7029 64.6018C30.732 63.2949 30.0039 61.6689 29.5185 59.7235C29.033 57.7784 28.7904 55.5293 28.7904 52.9762C28.7904 49.3593 29.2454 46.3959 30.1557 44.0861C31.0657 41.7761 32.4008 40.0589 34.1604 38.9342C35.9202 37.7794 38.0591 37.2018 40.5773 37.2018C42.519 37.2018 44.2029 37.521 45.6288 38.1592C47.0851 38.7975 48.2986 39.7701 49.2695 41.0772C50.2708 42.3537 51.0141 43.9797 51.4994 45.9552C52.0152 47.9006 52.2732 50.1648 52.2732 52.7483C52.2732 55.3926 52.0152 57.7024 51.4994 59.678C50.9836 61.6537 50.21 63.2949 49.1786 64.6018C48.1773 65.8783 46.9333 66.8509 45.4467 67.5197C43.9905 68.158 42.3066 68.4771 40.3952 68.4771ZM40.5773 62.7782C41.5784 62.7782 42.3977 62.4439 43.0348 61.7753C43.6719 61.0761 44.1421 60.0275 44.4455 58.6294C44.749 57.201 44.9006 55.3622 44.9006 53.1129C44.9006 50.7726 44.7338 48.858 44.4001 47.3687C44.0967 45.8488 43.6112 44.7395 42.9438 44.0404C42.2763 43.3109 41.442 42.9463 40.4407 42.9463C39.5003 42.9463 38.7113 43.2958 38.0742 43.9949C37.4371 44.6938 36.9669 45.7882 36.6635 47.2775C36.36 48.7668 36.2084 50.6662 36.2084 52.9762C36.2084 54.6479 36.2841 56.1067 36.436 57.3529C36.6181 58.5991 36.891 59.6172 37.2552 60.4075C37.6192 61.1977 38.0742 61.7904 38.6203 62.1856C39.1664 62.5806 39.8189 62.7782 40.5773 62.7782ZM54.7999 67.8844V37.7946H65.2216C66.769 37.7946 68.1646 37.9617 69.4086 38.296C70.6828 38.6305 71.775 39.1318 72.6851 39.8006C73.6256 40.4389 74.3387 41.2594 74.824 42.2625C75.3398 43.2351 75.5978 44.4052 75.5978 45.773C75.5978 47.019 75.3549 48.1133 74.8696 49.0554C74.4146 49.9976 73.7015 50.7422 72.7307 51.2893C71.7599 51.8364 70.5159 52.2012 68.999 52.3836V52.7938C71.6383 53.0065 73.5954 53.7208 74.8696 54.9367C76.1439 56.122 76.781 57.7936 76.781 59.9517C76.781 61.7144 76.3563 63.1885 75.5068 64.3739C74.6572 65.5289 73.4284 66.4102 71.8204 67.0182C70.2428 67.5956 68.3011 67.8844 65.9952 67.8844H54.7999ZM61.9449 62.2311H65.4947C66.8296 62.2311 67.846 61.9423 68.5437 61.3649C69.2416 60.7873 69.5905 59.9517 69.5905 58.8573C69.5905 57.6417 69.1809 56.7146 68.3618 56.0763C67.5729 55.4381 66.4353 55.1189 64.9486 55.1189H61.9449V62.2311ZM61.9449 50.4231H64.448C65.8133 50.4231 66.8296 50.1343 67.4972 49.5569C68.1949 48.949 68.5437 48.0524 68.5437 46.8671C68.5437 45.7425 68.2252 44.8914 67.588 44.314C66.9509 43.7364 65.9952 43.4478 64.7209 43.4478H61.9449V50.4231ZM89.3052 68.4771C87.3635 68.4771 85.6797 68.2338 84.2538 67.7476C82.8279 67.2309 81.6598 66.5014 80.7495 65.5592C79.8393 64.617 79.2021 63.4925 78.8382 62.1856C78.5044 60.8482 78.4588 59.3741 78.7017 57.7632L85.346 56.5322C85.2854 57.8087 85.4067 58.9334 85.7101 59.906C86.0134 60.8482 86.4837 61.5929 87.1209 62.1399C87.7883 62.6566 88.6075 62.9149 89.5784 62.9149C90.2458 62.9149 90.8223 62.8085 91.3077 62.5958C91.8235 62.383 92.2179 62.0792 92.4909 61.6841C92.764 61.2889 92.9005 60.8179 92.9005 60.2708C92.9005 59.3589 92.6427 58.5991 92.1269 57.9911C91.6414 57.3529 90.974 56.8058 90.1245 56.35C89.2749 55.8636 88.3344 55.4077 87.303 54.9822C86.2714 54.5567 85.2398 54.1009 84.2082 53.6145C83.207 53.0977 82.2816 52.5052 81.4321 51.8364C80.6131 51.1374 79.9455 50.2864 79.4299 49.2833C78.9141 48.2804 78.6561 47.095 78.6561 45.7273C78.6561 43.9646 79.0657 42.4447 79.8849 41.1682C80.7344 39.8916 81.9176 38.9191 83.4346 38.2505C84.982 37.5513 86.8023 37.2018 88.8958 37.2018C91.1409 37.2018 93.0523 37.6122 94.6298 38.4329C96.238 39.223 97.4363 40.3932 98.2251 41.9434C99.0443 43.463 99.3477 45.3018 99.1354 47.4597L92.5819 48.4628C92.6427 47.6421 92.6122 46.8975 92.4909 46.2288C92.3696 45.5297 92.142 44.922 91.8083 44.4052C91.5049 43.8885 91.0953 43.4933 90.5795 43.2199C90.0942 42.9159 89.4873 42.7639 88.7591 42.7639C88.0917 42.7639 87.5305 42.8854 87.0753 43.1287C86.6202 43.3415 86.2714 43.6301 86.0287 43.9949C85.7859 44.3595 85.6645 44.8002 85.6645 45.3169C85.6645 46.0161 85.8769 46.624 86.3017 47.1405C86.7567 47.6269 87.3635 48.0524 88.122 48.4171C88.9109 48.7819 89.7756 49.1617 90.7161 49.5569C91.8386 50.0128 92.9461 50.5143 94.0383 51.0614C95.1305 51.5781 96.1164 52.2315 96.9964 53.0219C97.9065 53.7817 98.6347 54.7086 99.1808 55.8029C99.7269 56.897 100 58.2342 100 59.8148C100 61.5777 99.5904 63.1125 98.7712 64.4194C97.9521 65.7264 96.7384 66.7294 95.1305 67.4285C93.5528 68.1274 91.6111 68.4771 89.3052 68.4771Z" fill="#161616"/>
</svg>
