<svg width="60" height="60" viewBox="0 0 60 60" fill="none" xmlns="http://www.w3.org/2000/svg">
<path d="M47.306 13.9216C48.3654 12.6466 48.1967 10.7529 46.9217 9.69351C45.6467 8.63414 43.7529 8.80289 42.6935 10.0779L29.9998 25.3123L17.306 10.0779C16.2466 8.80289 14.3529 8.63414 13.0779 9.69351C11.8029 10.7529 11.6341 12.6466 12.6935 13.9216L26.0904 29.9998L12.6935 46.0779C11.6341 47.3529 11.8029 49.2466 13.0779 50.306C14.3529 51.3654 16.2466 51.1966 17.306 49.9216L29.9998 34.6873L42.6935 49.9216C43.7529 51.1966 45.6467 51.3654 46.9217 50.306C48.1967 49.2466 48.3654 47.3529 47.306 46.0779L33.9091 29.9998L47.306 13.9216Z" fill="#FF16D4"/>
</svg>
