<svg width="60" height="60" viewBox="0 0 60 60" fill="none" xmlns="http://www.w3.org/2000/svg">
<path d="M8.67578 14.9043C8.67578 13.2449 10.0164 11.9043 11.6758 11.9043H47.6758C49.3352 11.9043 50.6758 13.2449 50.6758 14.9043C50.6758 16.5637 49.3352 17.9043 47.6758 17.9043H11.6758C10.0164 17.9043 8.67578 16.5637 8.67578 14.9043ZM8.67578 29.9043C8.67578 28.2449 10.0164 26.9043 11.6758 26.9043H47.6758C49.3352 26.9043 50.6758 28.2449 50.6758 29.9043C50.6758 31.5637 49.3352 32.9043 47.6758 32.9043H11.6758C10.0164 32.9043 8.67578 31.5637 8.67578 29.9043ZM50.6758 44.9043C50.6758 46.5637 49.3352 47.9043 47.6758 47.9043H11.6758C10.0164 47.9043 8.67578 46.5637 8.67578 44.9043C8.67578 43.2449 10.0164 41.9043 11.6758 41.9043H47.6758C49.3352 41.9043 50.6758 43.2449 50.6758 44.9043Z" fill="#FF16D4"/>
</svg>
